# xmcd
#
# Track frame offsets: 
#        150
#        14191
#        30002
#        42995
#        59990
#        73636
#        87089
#        108357
#        125395
#        139481
#        162509
#        178878
#        189941
#        205829
#        230427
#        261450
#
# Disc length: 3683 seconds
#
# Revision: 1
# Processed by: cddbd v1.5.2PL0 Copyright (c) Steve Scherf et al.
# Submitted via: ExactAudioCopy v1.3
#
DISCID=ed0e6110
DTITLE=Hackensaw Boys - For The Love Of A Friend - Live In Kinderdijk
DYEAR=2013
DGENRE=Folk
TTITLE0=Keep It Simple
TTITLE1=Flora
TTITLE2=Blue Run
TTITLE3=Radio
TTITLE4=End Times
TTITLE5=Oh Girl
TTITLE6=Parking Lot Song
TTITLE7=Can't Catch Me
TTITLE8=Ruby Pearl
TTITLE9=Elzic's Farewell
TTITLE10=Limosuin Lady
TTITLE11=Dance Around
TTITLE12=By And By
TTITLE13=Box Of Pine
TTITLE14=We Are Many
TTITLE15=Get In Line Brother
EXTD=
EXTT0=
EXTT1=
EXTT2=
EXTT3=
EXTT4=
EXTT5=
EXTT6=
EXTT7=
EXTT8=
EXTT9=
EXTT10=
EXTT11=
EXTT12=
EXTT13=
EXTT14=
EXTT15=
PLAYORDER=
